
IMDB Link: 
http://www.imdb.com/title/tt1071875/

Description:
As Johnny Blaze hides out in Eastern Europe, he is called upon to stop the devil, who is trying to take human form.

General:
Complete name : Ghost.Rider.Spirit.of.Vengeance.2012.TS.READNFO.XviD-SiC.avi
Format : AVI
Format/Info : Audio Video Interleave
File size : 702 MiB
Duration : 1h 19mn
Overall bit rate : 1 230 Kbps

Video
ID : 0
Format : MPEG-4 Visual
Format profile : Advanced Simple@L5
Format settings, BVOP : 2
Format settings, QPel : No
Format settings, GMC : No warppoints
Format settings, Matrix : Default (H.263)
Muxing mode : Packed bitstream
Codec ID : XVID
Codec ID/Hint : XviD
Duration : 1h 19mn
Bit rate : 1 093 Kbps
Width : 640 pixels
Height : 272 pixels
Display aspect ratio : 2.35:1
Frame rate : 25.000 fps
Color space : YUV
Chroma subsampling : 4:2:0
Bit depth : 8 bits
Scan type : Progressive
Compression mode : Lossy
Bits/(Pixel*Frame) : 0.251
Stream size : 624 MiB (89%)
Writing library : XviD 64

Audio
ID : 1
Format : MPEG Audio
Format version : Version 1
Format profile : Layer 3
Mode : Joint stereo
Mode extension : MS Stereo
Codec ID : 55
Codec ID/Hint : MP3
Duration : 1h 19mn
Bit rate mode : Constant
Bit rate : 128 Kbps
Channel(s) : 2 channels
Sampling rate : 44.1 KHz
Compression mode : Lossy
Stream size : 73.1 MiB (10%)
Alignment : Split accross interleaves
Interleave, duration : 40 ms (1.00 video frame)

Screenshots:
 
http://www.host-images.com/u/files/huna13ag0drua6l3wqgu.png
 
http://www.host-images.com/u/files/z64zk33zby8i1fw4832k.png
 
http://www.host-images.com/u/files/7crf6ed2n2jtb1985pik.png
 
http://www.host-images.com/u/files/l0yp7gq6dztlzwwmml7x.png
 
http://www.host-images.com/u/files/kj525ey2s57mbp8334hy.png